<svg width="800" height="600" viewBox="0 0 800 600" fill="none" xmlns="http://www.w3.org/2000/svg">
  <!-- Background -->
  <rect width="800" height="600" rx="12" fill="#0F172A"/>
  
  <!-- Sidebar -->
  <rect width="200" height="600" fill="#1E293B"/>
  <rect opacity="0.1" x="0" y="0" width="200" height="600" fill="#000"/>
  <rect x="20" y="30" width="120" height="30" rx="4" fill="#334155"/>
  <rect x="20" y="90" width="160" height="20" rx="4" fill="#334155"/>
  <rect x="20" y="130" width="160" height="20" rx="4" fill="#334155"/>
  <rect x="20" y="170" width="160" height="20" rx="4" fill="#334155"/>
  <rect x="20" y="210" width="160" height="20" rx="4" fill="#334155"/>
  
  <!-- Header -->
  <rect x="200" y="0" width="600" height="64" fill="#1E293B"/>
  <rect opacity="0.1" x="200" y="63" width="600" height="1" fill="#FFF"/>
  <rect x="230" y="20" width="100" height="24" rx="4" fill="#334155"/>
  <circle cx="750" cy="32" r="16" fill="#334155"/>
  
  <!-- Content Area -->
  
  <!-- Chart Card 1 -->
  <rect x="230" y="90" width="340" height="200" rx="8" fill="#1E293B" stroke="#334155"/>
  <rect x="250" y="110" width="120" height="16" rx="4" fill="#334155"/>
  <!-- Bar Chart -->
  <rect x="250" y="250" width="30" height="20" rx="2" fill="#475569"/>
  <rect x="290" y="200" width="30" height="70" rx="2" fill="#475569"/>
  <rect x="330" y="180" width="30" height="90" rx="2" fill="#64748B"/>
  <rect x="370" y="220" width="30" height="50" rx="2" fill="#475569"/>
  <rect x="410" y="150" width="30" height="120" rx="2" fill="#6366F1"/>
  <rect x="450" y="190" width="30" height="80" rx="2" fill="#64748B"/>
  <rect x="490" y="230" width="30" height="40" rx="2" fill="#475569"/>

  <!-- Stats Card -->
  <rect x="590" y="90" width="180" height="90" rx="8" fill="#1E293B" stroke="#334155"/>
  <rect x="610" y="110" width="80" height="12" rx="4" fill="#334155"/>
  <rect x="610" y="135" width="60" height="24" rx="4" fill="#6366F1" fill-opacity="0.2"/>
  
   <!-- Stats Card 2 -->
  <rect x="590" y="200" width="180" height="90" rx="8" fill="#1E293B" stroke="#334155"/>
  <rect x="610" y="220" width="80" height="12" rx="4" fill="#334155"/>
  <rect x="610" y="245" width="60" height="24" rx="4" fill="#10B981" fill-opacity="0.2"/>

  <!-- Image Grid Area -->
  <rect x="230" y="310" width="540" height="260" rx="8" fill="#1E293B" stroke="#334155"/>
  <rect x="250" y="330" width="150" height="16" rx="4" fill="#334155"/>
  
  <rect x="250" y="370" width="150" height="100" rx="4" fill="#0F172A"/>
  <rect x="420" y="370" width="150" height="100" rx="4" fill="#0F172A"/>
  <rect x="590" y="370" width="150" height="100" rx="4" fill="#0F172A"/>
  
  <!-- Bounding Boxes Mockup -->
  <rect x="280" y="400" width="40" height="40" stroke="#6366F1" stroke-width="2"/>
  <rect x="450" y="390" width="60" height="30" stroke="#10B981" stroke-width="2"/>
  
</svg>
